<?xml version="1.0" standalone="no"?>
<!DOCTYPE svg PUBLIC "-//W3C//DTD SVG 20010904//EN"
 "http://www.w3.org/TR/2001/REC-SVG-20010904/DTD/svg10.dtd">
<svg version="1.0" xmlns="http://www.w3.org/2000/svg"
 width="270.000000pt" height="270.000000pt" viewBox="0 0 270.000000 270.000000"
 preserveAspectRatio="xMidYMid meet">
<metadata>
Created by potrace 1.11, written by Peter Selinger 2001-2013
</metadata>
<g transform="translate(0.000000,270.000000) scale(0.100000,-0.100000)"
fill="#000000" stroke="none">
<path d="M1380 2310 c-8 -5 -26 -10 -40 -11 -14 0 -38 -9 -55 -20 -16 -10 -36
-22 -44 -26 -8 -4 -36 -27 -62 -52 -63 -61 -76 -71 -92 -71 -7 0 -18 -5 -24
-11 -7 -7 -27 -9 -55 -4 -121 20 -264 5 -309 -33 -35 -29 -42 -37 -90 -103
-49 -70 -56 -73 -212 -95 -26 -3 -50 -10 -53 -15 -3 -5 -12 -9 -21 -9 -24 0
-83 -66 -83 -93 0 -12 -4 -27 -9 -33 -5 -5 -12 -27 -15 -49 -3 -22 -13 -94
-22 -160 -22 -154 -25 -491 -5 -551 7 -22 20 -45 30 -51 96 -59 187 -93 250
-93 32 0 41 -4 47 -22 12 -40 80 -96 126 -103 24 -4 48 -11 53 -15 26 -20 224
-36 263 -22 49 19 119 24 134 10 41 -38 108 -57 231 -65 42 -3 77 -9 77 -14 0
-5 -4 -9 -10 -9 -5 0 -13 -18 -16 -40 -4 -22 -11 -43 -15 -46 -14 -8 -11 -131
4 -157 30 -54 97 -107 136 -107 11 0 23 -4 26 -10 8 -13 149 -13 173 -1 31 17
155 30 317 35 88 3 174 10 192 16 45 16 123 120 180 240 52 110 73 160 73 174
0 9 5 16 10 16 6 0 10 8 10 18 0 10 3 22 7 26 13 13 43 121 43 156 0 19 -10
78 -21 130 -11 52 -23 109 -26 125 -3 17 -9 35 -13 40 -4 6 -11 38 -15 73 -4
34 -11 65 -16 68 -5 3 -9 20 -9 39 0 19 -4 36 -9 39 -4 3 -11 28 -15 56 -4 28
-11 61 -15 73 -5 12 -14 42 -21 67 -22 79 -41 144 -49 165 -18 44 -54 154 -73
220 -11 39 -28 81 -38 95 -9 14 -20 33 -23 42 -7 20 -108 88 -131 88 -8 0 -18
5 -21 10 -7 12 -107 13 -121 2 -5 -5 -35 -15 -67 -22 -67 -15 -129 -5 -206 37
-24 12 -50 23 -57 23 -8 0 -14 3 -14 8 0 24 -158 43 -190 22z m265 -81 c117
-56 115 -56 265 -24 102 21 145 13 207 -39 73 -63 112 -167 143 -381 5 -33 16
-98 26 -145 25 -128 33 -189 48 -375 8 -93 18 -189 21 -213 13 -89 -52 -252
-101 -252 -8 0 -14 -4 -14 -8 0 -22 -199 -57 -263 -46 -50 9 -87 25 -87 39 0
7 -7 15 -15 19 -8 3 -15 15 -15 26 0 11 -4 20 -9 20 -5 0 -11 24 -14 53 -2 28
-14 105 -26 170 -11 65 -21 129 -21 142 0 12 -7 36 -15 51 -16 32 -16 38 -20
-211 -3 -184 -32 -255 -117 -293 -16 -7 -40 -18 -55 -24 -17 -9 -75 -13 -167
-13 -115 0 -150 4 -188 19 -27 10 -48 23 -48 27 0 5 -5 9 -10 9 -6 0 -22 10
-35 23 -38 35 -55 138 -55 340 0 94 -4 167 -8 162 -9 -10 -29 -123 -54 -295
-6 -47 -17 -99 -24 -116 -18 -43 -85 -86 -147 -95 -65 -9 -181 -2 -185 11 -2
6 -9 10 -16 10 -24 0 -77 54 -96 98 -15 34 -21 77 -26 193 -6 133 -8 146 -21
123 -7 -15 -13 -47 -13 -73 0 -40 -8 -73 -36 -153 -7 -20 -34 -28 -95 -28 -56
0 -105 39 -122 97 -15 51 -14 424 1 533 28 193 58 227 232 259 75 14 127 45
166 98 86 116 140 139 304 129 145 -9 169 -2 255 79 100 94 159 117 277 109
55 -3 87 -13 173 -55z m738 -851 c10 -36 34 -135 57 -233 12 -49 26 -104 31
-121 12 -41 12 -161 -1 -169 -5 -3 -10 -14 -10 -24 0 -42 -114 -292 -175 -385
-48 -72 -56 -81 -90 -98 -34 -18 -209 -38 -331 -38 -46 0 -95 -5 -111 -11 -15
-6 -73 -11 -128 -12 -114 -2 -143 9 -194 70 -40 48 -42 105 -7 145 36 43 151
59 385 56 200 -3 264 6 375 57 28 12 61 26 74 30 33 10 89 67 117 118 31 60
39 140 25 257 -41 336 -45 380 -33 380 6 0 13 -10 16 -22z"/>
</g>
</svg>
