<?xml version="1.0" standalone="no"?>
<!DOCTYPE svg PUBLIC "-//W3C//DTD SVG 20010904//EN"
 "http://www.w3.org/TR/2001/REC-SVG-20010904/DTD/svg10.dtd">
<svg version="1.0" xmlns="http://www.w3.org/2000/svg"
 width="270.000000pt" height="270.000000pt" viewBox="0 0 270.000000 270.000000"
 preserveAspectRatio="xMidYMid meet">
<metadata>
Created by potrace 1.11, written by Peter Selinger 2001-2013
</metadata>
<g transform="translate(0.000000,270.000000) scale(0.100000,-0.100000)"
fill="#000000" stroke="none">
<path d="M1449 2499 c-7 -4 -18 -5 -26 -2 -7 3 -13 0 -13 -6 0 -6 -7 -11 -16
-11 -8 0 -13 -4 -10 -9 3 -5 -1 -14 -9 -21 -8 -7 -12 -16 -9 -21 3 -5 1 -9 -3
-9 -13 0 -42 -107 -45 -162 -1 -17 -5 -25 -12 -21 -6 4 -5 0 2 -9 10 -12 10
-18 -2 -27 -8 -7 -12 -21 -8 -33 3 -14 1 -19 -6 -14 -7 4 -9 -1 -7 -15 2 -12
0 -29 -5 -39 -6 -11 -5 -21 2 -28 9 -9 8 -12 -4 -12 -12 0 -15 -7 -12 -24 2
-14 0 -28 -6 -31 -5 -3 -10 -22 -10 -41 0 -19 -4 -33 -8 -30 -4 2 -9 -10 -10
-27 -2 -17 -8 -34 -14 -38 -6 -4 -7 -12 -3 -18 4 -7 1 -18 -5 -26 -7 -8 -9
-15 -5 -15 4 0 2 -7 -5 -15 -6 -8 -9 -19 -5 -25 3 -5 2 -10 -2 -10 -5 0 -10
-14 -11 -32 -2 -18 -7 -35 -13 -39 -5 -3 -9 -10 -8 -15 1 -5 -1 -17 -4 -26
-16 -43 -20 -54 -24 -65 -1 -7 -5 -19 -6 -25 -2 -7 -9 -26 -15 -41 -7 -16 -12
-34 -12 -41 0 -6 -5 -17 -12 -24 -14 -14 -38 2 -38 25 0 8 -4 11 -10 8 -5 -3
-10 2 -10 12 0 11 -6 25 -12 32 -11 11 -10 12 1 6 9 -5 7 1 -4 19 -10 14 -15
26 -12 26 3 0 -1 16 -9 35 -8 19 -11 35 -8 35 3 0 -1 12 -11 26 -9 15 -12 23
-5 19 7 -4 5 5 -4 24 -9 17 -16 33 -16 36 0 3 -1 7 -1 10 -1 3 -3 10 -4 15 -1
6 -3 11 -4 13 -2 1 -4 12 -7 24 -8 44 -9 48 -16 54 -5 3 -9 17 -10 32 -1 15
-7 27 -12 27 -5 0 -7 3 -3 6 3 4 0 22 -8 41 -8 19 -12 39 -9 44 3 5 0 9 -5 9
-6 0 -11 8 -11 17 0 18 -24 90 -42 130 -6 11 -7 26 -4 32 4 6 0 14 -8 17 -9 3
-16 15 -16 25 0 11 -13 33 -29 48 -16 16 -27 32 -23 37 4 4 1 4 -5 0 -7 -4
-22 -2 -34 5 -17 9 -20 8 -13 -3 6 -11 5 -11 -9 1 -13 11 -17 11 -17 1 0 -8
-3 -11 -6 -7 -8 8 -65 -13 -59 -23 3 -4 -2 -10 -9 -13 -32 -12 -35 -163 -5
-219 5 -9 9 -28 9 -43 0 -14 4 -24 8 -21 5 3 9 -9 10 -26 0 -17 5 -34 10 -37
5 -3 8 -14 6 -23 -1 -10 1 -18 5 -18 4 0 8 -6 9 -12 2 -23 7 -43 16 -56 4 -7
5 -16 2 -19 -3 -3 1 -21 9 -40 8 -19 12 -39 9 -44 -3 -5 0 -9 5 -9 6 0 11 -13
11 -30 0 -16 4 -30 9 -30 5 0 11 -15 14 -32 3 -18 8 -44 12 -58 3 -14 7 -32 7
-40 0 -8 4 -19 8 -25 4 -5 6 -20 5 -32 -1 -12 2 -20 6 -17 4 2 8 -4 8 -13 0
-17 8 -58 11 -58 8 0 6 -36 -2 -42 -6 -3 -8 -1 -4 5 3 5 1 12 -6 14 -6 2 -13
15 -15 28 -2 13 -9 28 -16 32 -9 6 -8 8 3 8 9 0 11 3 5 8 -11 8 -16 23 -23 70
-2 17 -8 32 -14 32 -5 0 -8 8 -7 18 2 9 -6 42 -16 72 -10 30 -20 60 -20 65 -1
6 -3 13 -5 18 -5 14 -8 27 -9 48 0 11 -5 18 -10 15 -4 -3 -7 6 -5 19 1 14 -2
25 -7 25 -5 0 -8 3 -8 8 4 22 -2 53 -9 48 -4 -2 -9 10 -10 27 -2 17 -6 34 -11
37 -9 6 -25 42 -23 53 1 4 -5 7 -14 7 -8 0 -12 5 -9 10 3 6 0 10 -9 10 -8 0
-16 5 -18 11 -2 6 -21 11 -43 11 -22 0 -41 -5 -43 -11 -2 -6 -10 -11 -18 -11
-8 0 -14 -9 -14 -20 0 -11 -4 -20 -10 -20 -5 0 -10 -5 -10 -11 0 -5 5 -7 11
-3 8 5 8 1 0 -13 -7 -14 -7 -23 0 -30 8 -8 7 -13 0 -17 -7 -5 -7 -13 1 -29 28
-55 30 -59 18 -52 -9 6 -9 2 -1 -13 6 -11 11 -30 11 -41 0 -12 4 -21 9 -21 5
0 8 -11 5 -25 -2 -14 -1 -25 4 -25 4 0 9 -14 10 -32 2 -17 8 -38 15 -47 10
-12 9 -13 -3 -6 -12 7 -13 6 -3 -6 10 -12 25 -78 26 -116 0 -7 4 -10 8 -8 4 3
9 -16 12 -43 2 -26 12 -78 21 -117 19 -77 24 -141 27 -347 1 -97 5 -135 13
-131 6 4 5 -1 -3 -10 -9 -11 -10 -17 -2 -17 6 0 11 -5 11 -11 0 -5 -5 -7 -12
-3 -7 5 -8 3 -3 -6 5 -7 10 -27 12 -44 1 -17 6 -49 9 -71 4 -22 7 -48 7 -57 1
-9 5 -14 9 -12 4 3 8 -6 8 -20 0 -14 6 -26 13 -26 9 0 9 -2 -1 -9 -11 -7 -10
-9 3 -15 9 -3 13 -10 10 -16 -3 -5 -2 -10 4 -10 5 0 12 -14 16 -30 4 -17 11
-28 16 -24 5 3 9 -2 9 -10 0 -8 11 -27 25 -41 14 -14 24 -25 21 -25 -2 0 10
-15 27 -33 18 -18 33 -32 35 -31 2 1 15 -9 29 -22 14 -13 30 -24 35 -24 5 0
16 -7 24 -15 9 -8 24 -15 34 -15 10 0 22 -5 25 -10 3 -6 20 -10 36 -10 19 0
28 -4 24 -11 -4 -6 -1 -9 6 -8 8 1 30 -1 49 -5 19 -4 45 -8 58 -9 12 -1 22 -4
22 -8 0 -13 204 -8 219 4 12 10 13 9 6 -3 -8 -13 -7 -13 8 -1 9 7 17 11 17 8
0 -8 92 22 118 39 18 12 22 12 17 3 -5 -8 1 -6 12 3 11 10 23 18 27 18 4 0 21
9 37 21 16 11 29 18 29 15 0 -3 12 6 26 19 15 14 31 22 37 18 6 -3 7 -1 3 5
-4 7 -3 12 3 12 6 0 21 11 35 25 14 14 30 25 36 25 6 0 8 5 5 10 -3 6 -2 10 3
10 5 0 21 18 36 40 14 22 24 40 20 40 -3 0 4 12 15 26 12 15 21 33 21 40 0 8
4 14 10 14 5 0 12 16 16 36 3 19 15 41 25 47 11 7 19 17 19 24 0 7 5 13 12 13
6 0 9 3 5 6 -3 3 10 22 29 42 19 19 34 38 34 42 0 4 11 19 25 34 14 15 43 63
65 106 22 43 44 81 50 85 5 3 10 15 10 26 0 11 5 17 10 14 6 -3 10 1 10 10 0
9 4 14 9 10 5 -3 12 4 16 15 3 11 10 20 15 20 5 0 18 10 30 22 11 12 20 18 20
13 0 -4 8 2 19 13 10 12 21 19 25 15 3 -3 6 -1 6 5 0 6 12 24 28 40 15 15 33
40 41 55 8 14 17 25 20 23 3 -2 7 16 8 41 3 55 -20 103 -48 103 -11 0 -17 5
-14 10 4 6 -5 10 -20 10 -14 0 -24 4 -21 8 3 5 -1 9 -9 9 -8 0 -11 -5 -8 -10
4 -6 1 -7 -8 -2 -21 13 -52 14 -68 1 -12 -9 -13 -8 -6 4 8 13 7 13 -8 1 -9 -7
-17 -11 -17 -7 0 11 -94 -44 -115 -68 -43 -46 -82 -103 -98 -141 -10 -22 -22
-47 -27 -55 -5 -8 -17 -30 -26 -47 -9 -18 -20 -31 -24 -28 -5 3 -11 -3 -15
-14 -3 -10 -25 -26 -48 -35 -49 -19 -61 -20 -52 -6 3 6 -1 10 -9 10 -9 0 -16
8 -17 18 -3 48 -6 70 -14 82 -5 8 -4 11 2 7 6 -4 11 4 11 18 0 14 -5 22 -11
18 -6 -4 -7 -1 -2 8 5 7 10 37 10 66 1 29 5 56 8 59 4 4 4 18 0 32 -3 14 -2
23 3 19 5 -3 9 18 8 46 0 29 4 58 9 65 6 8 5 12 -4 12 -9 0 -10 3 -4 8 10 7
12 20 17 94 2 20 6 40 11 44 4 4 7 12 7 18 0 6 -5 4 -10 -4 -5 -8 -10 -10 -10
-4 0 6 3 14 7 18 5 4 9 24 10 44 2 51 7 75 17 91 7 10 6 12 -4 6 -10 -6 -11
-4 -4 6 4 8 9 28 10 44 1 17 3 30 4 30 1 0 4 20 6 45 3 25 9 49 13 55 4 5 6
51 5 100 -4 108 -6 125 -16 125 -4 0 -8 8 -8 17 0 9 -3 14 -6 11 -3 -4 -14 2
-25 13 -12 12 -31 18 -56 17 -39 -1 -78 -20 -66 -31 3 -4 1 -7 -5 -7 -7 0 -11
-6 -9 -12 1 -7 -4 -12 -11 -10 -7 1 -12 -3 -10 -10 1 -7 -3 -22 -9 -34 -7 -11
-15 -34 -18 -50 -10 -47 -10 -48 -19 -63 -7 -10 -5 -12 5 -6 11 6 12 5 2 -6
-7 -7 -13 -28 -13 -46 0 -20 -5 -33 -12 -33 -9 0 -8 -4 2 -10 10 -6 11 -10 3
-10 -7 0 -12 -10 -12 -22 1 -13 -2 -34 -6 -48 -7 -28 -12 -62 -21 -130 -3 -24
-11 -51 -17 -59 -10 -12 -9 -13 2 -6 11 6 12 5 5 -6 -10 -17 -11 -20 -13 -60
0 -16 -4 -28 -8 -26 -5 3 -8 -9 -7 -26 1 -18 -4 -36 -10 -40 -8 -6 -7 -10 1
-14 10 -3 10 -8 -1 -18 -7 -8 -12 -24 -11 -37 2 -13 -4 -30 -13 -38 -14 -13
-15 -12 -9 3 4 10 2 17 -6 17 -8 0 -8 3 -2 8 6 4 12 25 14 47 2 22 6 44 9 50
3 5 8 28 10 50 2 22 9 43 15 47 9 6 9 8 -1 8 -8 0 -10 5 -5 13 8 13 10 18 12
43 1 9 6 12 14 8 9 -6 9 -4 -1 8 -8 10 -10 23 -4 39 5 13 7 30 4 38 -3 10 0
11 9 5 11 -6 12 -5 2 8 -7 8 -10 18 -6 22 7 7 13 28 16 61 1 11 7 23 12 27 6
5 5 8 -4 8 -10 0 -11 3 -2 14 6 7 9 21 5 30 -3 9 -2 16 3 16 5 0 9 10 10 23 4
73 7 96 13 92 12 -7 6 29 -5 37 -6 5 -5 8 3 8 7 0 12 15 12 39 0 22 5 42 13
44 9 4 8 8 -3 16 -8 6 -10 11 -5 11 6 0 12 31 13 71 2 48 0 69 -7 64 -6 -3
-11 1 -11 10 0 20 -24 46 -48 50 -9 2 -17 4 -17 5 0 6 -47 5 -56 -1z"/>
</g>
</svg>
